# xmcd
#
# Track frame offsets: 
#        150
#        15405
#        37140
#        56442
#        77950
#        92490
#        112560
#        129375
#        145030
#        162387
#        176617
#
# Disc length: 2541 seconds
#
# Revision: 3
# Processed by: cddbd v1.5.2PL0 Copyright (c) Steve Scherf et al.
# Submitted via: ExactAudioCopy v1.0b1
#
DISCID=8009eb0b
DTITLE=Chipmunks - Chipmunks In Low Places
DYEAR=1992
DGENRE=Country
TTITLE0=Country Pride
TTITLE1=Achy Breaky Heart [With Special Guest Billy Ray Cyrus]
TTITLE2=There Ain't Nothin' Wrong With The Radio [With Special Guest A
TTITLE2=aron Tippin]
TTITLE3=Stand By Your Man [With Special Guest Tammy Wynette]
TTITLE4=Gotta Believe In Pumpkins
TTITLE5=Brothers And Old Boots [With Special Guest Charlie Daniels]
TTITLE6=Don't Rock The Jukebox [With Special Guest Alan Jackson]
TTITLE7=Down At The Twist And Shout
TTITLE8=Outlaws [With Special Guest Waylon Jennings]
TTITLE9=I Feel Lucky
TTITLE10=I Ain't No Dang Cartoon
EXTD=
EXTT0=
EXTT1=
EXTT2=
EXTT3=
EXTT4=
EXTT5=
EXTT6=
EXTT7=
EXTT8=
EXTT9=
EXTT10=
PLAYORDER=
